<svg xmlns="http://www.w3.org/2000/svg" viewBox="0 0 12.13 15.17"><g id="Layer_2" data-name="Layer 2"><g id="Capa_1" data-name="Capa 1"><path d="M3.78,4.7C3,7,1.9,9.15,4,11.42c1.34-2.12-1.53-6,2.86-6.56,1,4,.63,5.34-1.85,7,2.47,1.35,4.46,1,7.17-1.33-.06,2.72-1.66,4.33-4.6,4.64C3.93,15.5.86,13.59.14,10.52-.45,8,.84,5.87,3.78,4.7Z"/><path d="M.65,3.85C-.13,2.22.85.42,3.36.5c1.44.05,2.85.75,4.29.86a11,11,0,0,0,3-.53L11.19,0c.28.94,1.08,2.21.74,2.74A4.25,4.25,0,0,1,9.06,4.43C7.74,4.54,6.38,3.78,5,3.66A32.54,32.54,0,0,0,.65,3.85Z"/></g></g></svg>