<svg xmlns="http://www.w3.org/2000/svg" viewBox="0 0 17.15 13.79"><g id="Layer_2" data-name="Layer 2"><g id="Capa_1" data-name="Capa 1"><path d="M3.13,3.52C2.57.16,4.45-.12,7,0c2.66.17,5.35.1,8,0,1.65,0,2.21.61,2.17,2.18-.08,3.12-.08,6.23,0,9.35.05,1.58-.55,2.23-2.17,2.21-4,0-8,0-12,0-2.05,0-3.09-.9-2.91-3A23.44,23.44,0,0,0,0,6.82C-.12,4.71,0,2.94,3.13,3.52Zm12.75,9.23V1.18H4.49V12.75Z"/><path d="M13.82,3.79H6.62v-.5h7.2Z"/><path d="M6.65,5.16h6.93v.5H6.66Z"/><ellipse cx="10.11" cy="7.56" rx="4.92" ry="0.32"/></g></g></svg>