<svg xmlns="http://www.w3.org/2000/svg" viewBox="0 0 62.3 62.24"><g id="Layer_2" data-name="Layer 2"><g id="Capa_1" data-name="Capa 1"><path d="M30.74,33.85l-6,6.45L5.36,61.12a3.1,3.1,0,0,1-4.83-.07A3.16,3.16,0,0,1,1,57c1.62-1.53,3.26-3.05,4.9-4.57L27.87,32l.59-.57-6.27-6.76a23.68,23.68,0,0,1-3,1.27,11.11,11.11,0,0,1-9.93-2.08,17.63,17.63,0,0,1-4.46-5.26A24.26,24.26,0,0,1,1.15,8.87a8.33,8.33,0,0,1,.38-4c.87-2.23,2.71-2.94,4.89-3a16.28,16.28,0,0,1,7,1.46A24.82,24.82,0,0,1,22.27,9a11.54,11.54,0,0,1,3.3,8.92,9.31,9.31,0,0,1-1.34,4.25l-.4.64,6.93,6.46,6.48-6a6.74,6.74,0,0,1-.83-3.33,8.69,8.69,0,0,1,3.24-6.69C44.73,9,49.85,4.74,55,.51A2.76,2.76,0,0,1,55.9,0c-4.54,5.05-9.51,9.67-14.28,14.48l1,1C47.7,11,52.65,6.3,57.92,2l.16.14a4.68,4.68,0,0,1-.45.62c-2.36,2.57-4.73,5.14-7.11,7.68-2,2.08-3.92,4.13-5.88,6.18l-.48.52,1,.94c5-4.63,9.78-9.48,14.91-13.95l.15.12a5.82,5.82,0,0,1-.47.71q-4,4.54-7.93,9.08c-1.66,1.89-3.35,3.76-5,5.67l1,.91c4.77-4.73,9.39-9.7,14.35-14.34l.18.15c-.21.29-.39.61-.62.89C59.32,10.19,57,13.11,54.6,16c-2.11,2.53-4.17,5.1-6.47,7.45a7.44,7.44,0,0,1-7.79,2.16,4.32,4.32,0,0,1-.68-.26c-.2-.08-.4-.19-.67-.33L33,31.4l.84.78Q47,44.39,60.13,56.6a3.35,3.35,0,0,1,.67,4.19,3.08,3.08,0,0,1-4.73.25c-1.57-1.65-3.11-3.32-4.66-5L31.13,34.25Z"/></g></g></svg>