<svg xmlns="http://www.w3.org/2000/svg" viewBox="0 0 264.6 186.1"><g id="Layer_2" data-name="Layer 2"><g id="Layer_1-2" data-name="Layer 1"><path d="M264.6,165.91c-.73,2.24-1.46,4.48-2.13,6.52L182.59,93.26l80-79.2c.53,1.58,1.3,3.85,2.06,6.12Z"/><path d="M250.71,2.46c-.64.68-1.27,1.37-1.93,2L139.9,113.71c-5.18,5.2-10,5.21-15.17,0Q70.28,59.12,15.85,4.5c-.66-.66-1.28-1.35-2.44-2.57,3.1-.69,5.71-1.32,8.34-1.82A16.82,16.82,0,0,1,24.85,0Q132.31,0,239.77.09c3.61,0,7.22.86,10.83,1.33Z"/><path d="M13.91,183.58l79.74-79c.3.28,1,.91,1.63,1.56q9.5,9.53,19,19c10.54,10.53,25.53,10.53,36.12,0,6.35-6.32,12.65-12.69,19-19,.66-.65,1.34-1.27,1.63-1.55l80.32,79.56c-3.17.7-5.77,1.34-8.4,1.82a18.8,18.8,0,0,1-3.36.08q-107.22,0-214.45-.05c-3.69,0-7.39-.88-11.09-1.34Z"/><path d="M2.12,172.07A22.21,22.21,0,0,1,0,161.7q0-32.14,0-64.3C0,73.13,0,48.85.09,24.58c0-3.7,1-7.39,1.55-11L81.87,93.07Q42.11,132.46,2.12,172.07Z"/></g></g></svg>