<svg xmlns="http://www.w3.org/2000/svg" viewBox="0 0 266.78 202.21"><g id="Layer_2" data-name="Layer 2"><g id="Layer_1-2" data-name="Layer 1"><path d="M160.12,139.28c-10.31,0-20.28-.82-30.08.14-47.95,4.72-87.63,26.69-121.85,59.64-.52.5-.93,1.23-1.54,1.5-1.56.69-3.92,2.09-4.67,1.52A5.83,5.83,0,0,1,.07,197.2c2.77-11.77,5.32-23.64,9-35.13,6.86-21.28,16.85-41.07,31-58.52C67.5,69.86,102.92,50.61,145.93,45.21a94.76,94.76,0,0,1,10.77-.88c2.92,0,3.58-1.27,3.55-4-.12-11.69-.16-23.37.05-35,0-1.83,1.1-4.33,2.5-5.19.91-.57,3.67.88,5,2.1q43.32,40.46,86.48,81.1c3.56,3.34,7.09,6.72,10.68,10,2.61,2.42,2.34,4.56-.19,6.92q-22.12,20.66-44.15,41.39c-17.66,16.59-35.27,33.23-53,49.73-1.27,1.18-3.81,2.3-5.09,1.78s-2.18-3.14-2.2-4.86c-.2-14.57-.16-29.14-.18-43.71C160.11,143.06,160.12,141.5,160.12,139.28Zm7.17-127.76c0,11.86,0,22.53,0,33.2,0,5.68-.8,6.42-6.51,6.54a155.29,155.29,0,0,0-47.42,8.79c-28.21,9.7-51.36,26.64-69.58,50-12.12,15.54-20.85,33.17-27.14,51.89-2.77,8.24-5,16.65-7.54,25a2.4,2.4,0,0,0,2.14-.64A233.67,233.67,0,0,1,74,146.21a177.66,177.66,0,0,1,88.28-13.69c3.94.38,5.14,2.15,5.08,5.85-.17,8.94-.09,17.88-.11,26.83,0,5.24,0,10.48,0,16.81l90.8-85.28Z"/><path d="M167.29,11.52l90.78,85.21L167.27,182c0-6.33,0-11.57,0-16.81,0-8.95-.06-17.89.11-26.83.06-3.7-1.14-5.47-5.08-5.85A177.66,177.66,0,0,0,74,146.21a233.67,233.67,0,0,0-62.79,40.08,2.4,2.4,0,0,1-2.14.64c2.5-8.34,4.77-16.75,7.54-25,6.29-18.72,15-36.35,27.14-51.89,18.22-23.36,41.37-40.3,69.58-50a155.29,155.29,0,0,1,47.42-8.79c5.71-.12,6.48-.86,6.51-6.54C167.33,34.05,167.29,23.38,167.29,11.52Z"/></g></g></svg>