<svg xmlns="http://www.w3.org/2000/svg" viewBox="0 0 176.58 176.55"><defs><style>.cls-1{font-size:63.86px;font-family:ArialRoundedMTBold, Arial Rounded MT Bold;}</style></defs><g id="Layer_2" data-name="Layer 2"><g id="Layer_1-2" data-name="Layer 1"><path d="M168.06,3.23a17.57,17.57,0,0,1,8.2,12.36,6.76,6.76,0,0,0,.32,1V122.08c-.28,1.1-.52,2.22-.85,3.31a18.68,18.68,0,0,1-17.45,13.26c-6.95.13-13.91,0-20.86,0H135.3c.38,3.5.73,6.84,1.11,10.18.73,6.62,1.53,13.23,2.2,19.86.42,4.17-1.42,6.93-5,7.68a6.56,6.56,0,0,1-6-1.94l-26.91-24.22c-3.85-3.46-7.72-6.89-11.51-10.4A4.34,4.34,0,0,0,86,138.68q-33.2,0-66.38,0c-8.27,0-14.4-3.63-17.86-11.13a19.73,19.73,0,0,1-1.71-8Q-.09,69.34,0,19.08A18.77,18.77,0,0,1,15.78.3a5.1,5.1,0,0,0,.79-.3H160C162.72,1.05,165.63,1.75,168.06,3.23ZM123,142c-.31-2.86-.68-5.71-.91-8.57-.35-4.45,2.24-7.25,6.7-7.26,9.2,0,18.39,0,27.59,0,5.26,0,7.62-2.33,7.62-7.53q0-49.21,0-98.44c0-5.26-2.29-7.55-7.56-7.55H20.2c-5.27,0-7.56,2.29-7.56,7.56v98.43c0,5.2,2.37,7.53,7.63,7.53,22.87,0,45.74,0,68.61,0a9.62,9.62,0,0,1,7,2.7c8.83,8.05,17.75,16,26.63,24,.46.41.94.81,1.84,1.59C123.83,150,123.39,146,123,142Z"/><text class="cls-1" transform="translate(33.84 88.68)">120</text></g></g></svg>