<svg xmlns="http://www.w3.org/2000/svg" viewBox="0 0 177.7 177"><g id="Layer_2" data-name="Layer 2"><g id="Layer_1-2" data-name="Layer 1"><path d="M175.32,165a24.48,24.48,0,0,0-4.66-5.83c-4.33-3.84-16.89-16.44-34.23-34,27.32-36,19.4-82-10.14-107A76.79,76.79,0,0,0,24.44,20.48C-3,46.08-9.37,89.84,15.86,123.53,39,154.41,87,165.75,124.93,136.93l31.39,31a31,31,0,0,0,4,4c3.34,2.78,6.26,5.22,10,5,2.74-.16,6.26-1.75,7.16-4.6C178.24,170,176.88,167.65,175.32,165ZM76.55,137c-33.74-.08-60.14-26.65-60-60.39a60.07,60.07,0,1,1,60,60.39Z"/></g></g></svg>