<svg xmlns="http://www.w3.org/2000/svg" viewBox="0 0 178.28 147.43"><g id="Layer_2" data-name="Layer 2"><g id="Layer_1-2" data-name="Layer 1"><path d="M87.27,45.57c0-3.56-.08-6.49,0-9.41C88.12,8,119-9.69,142.62,5.67c9.53,6.22,16.63,5.12,25.18.85a10.69,10.69,0,0,1,6.76-1.13l-12.27,17.5,16-3.8c-1.23,2.06-1.62,3.54-2.59,4.22C163.29,32.1,161.7,45,159.55,59,148.48,131.19,69.31,169.4,5.34,134.11c-1.09-.6-2.1-1.37-5.34-3.5,20.33.83,37-3.1,52.6-14.81C37,112.69,25.44,105.65,19.8,90.08l14.51-.8C16.9,81.69,7.2,70.64,6.47,52.66L22,56.93C6.82,41.73,2.47,26.09,11.64,7.13,31.91,30.09,56.4,43.54,87.27,45.57Z"/></g></g></svg>