<svg xmlns="http://www.w3.org/2000/svg" viewBox="0 0 183.64 183.78"><g id="Layer_2" data-name="Layer 2"><g id="Layer_1-2" data-name="Layer 1"><path d="M2.71,181c1.07-3.86,2.09-7.54,3.12-11.21q3.91-14,7.84-27.92a2.66,2.66,0,0,0-.35-2.32A91.87,91.87,0,0,1,52.87,8.71C105-15.93,167.52,14,181,70a91.64,91.64,0,0,1-69.21,111.44c-23.84,5.34-46.43,1.43-67.49-11a3,3,0,0,0-2.57-.37Q23,175.37,4.21,180.59C3.78,180.72,3.33,180.81,2.71,181ZM19.88,163.8c.67-.16,1.07-.26,1.46-.37,7.22-2,14.45-4,21.64-6.1A4.34,4.34,0,0,1,47,158c17.79,11.86,37.29,16.07,58.36,12.54,36-6,65.74-36.88,66.39-78.24a77.62,77.62,0,0,0-1.61-15.84C162.09,34.24,121.28,6,78.9,13,48.06,18.14,19.89,41.39,13,78.5a75.27,75.27,0,0,0,.37,28.42,80.09,80.09,0,0,0,12.9,30.59,2.4,2.4,0,0,1,.38,2.3c-.86,2.83-1.61,5.7-2.41,8.55C22.78,153.43,21.36,158.5,19.88,163.8Z"/><path d="M119.61,136.79a33.35,33.35,0,0,1-14.2-3.25C87.58,125,72.15,113.53,61,96.92c-4.49-6.67-8.89-13.41-11.77-21a30.23,30.23,0,0,1-2.08-14.42,8.23,8.23,0,0,1,.36-2.05c2-5.09,5.22-9.32,10.13-11.65,4.15-2,8.46-1.06,11.9,2.06A33.71,33.71,0,0,1,77.86,62c1.35,3.27,1,6.33-1.8,8.86-1.34,1.21-2.54,2.57-3.85,3.81a4.75,4.75,0,0,0-1.3,5.67,23.5,23.5,0,0,0,2.2,4.47,90.35,90.35,0,0,0,5.94,7.82,100.49,100.49,0,0,0,17.12,16.11,44.89,44.89,0,0,0,7.1,4,4.68,4.68,0,0,0,5.79-1.29c1.23-1.32,2.6-2.51,3.8-3.85a7,7,0,0,1,8.35-1.93,34.31,34.31,0,0,1,13,8.86c2.87,3.12,4.05,10.1.21,14.08a59.76,59.76,0,0,1-7.53,6.49C124.64,136.74,121.88,136.73,119.61,136.79Z"/></g></g></svg>